# xmcd
#
# Track frame offsets: 
#        150
#        11458
#        23221
#        33452
#        46719
#        56728
#        67559
#        80503
#        92117
#        102591
#
# Disc length: 1527 seconds
#
# Revision: 0
# Processed by: cddbd v1.5.2PL0 Copyright (c) Steve Scherf et al.
# Submitted via: ExactAudioCopyFreeDBPlugin 1.0
#
DISCID=7205f50a
DTITLE=George Jones - Heartaches and Hangovers
DYEAR=2012
DGENRE=Country
TTITLE0=Swinging Doors
TTITLE1=Burn Another Honky Tonk Down
TTITLE2=Heartaches and Hangovers
TTITLE3=Mama, Take Me Home
TTITLE4=Feeling Single, Seeing Double
TTITLE5=World Of Forgotten People
TTITLE6=Brothers Of A Bottle
TTITLE7=The Honky Tonk Downstairs
TTITLE8=You're Still On My Mind
TTITLE9=White Lightnin'
EXTD=
EXTT0=
EXTT1=
EXTT2=
EXTT3=
EXTT4=
EXTT5=
EXTT6=
EXTT7=
EXTT8=
EXTT9=
PLAYORDER=
